<svg width="18" height="21" viewBox="0 0 18 21" fill="none" xmlns="http://www.w3.org/2000/svg">
<path d="M12.1574 2.60251C11.7341 2.17244 11.2715 1.80317 10.7814 1.48697L10.7865 1.4449C10.7588 1.44263 10.7292 1.43848 10.7015 1.43621C9.04106 0.393516 7.08913 -0.0257702 5.37125 0.00121934C4.08366 0.0228657 2.9227 0.289621 2.087 0.755358C1.67112 0.986473 1.33308 1.27038 1.10957 1.61054C0.888125 1.94904 0.789177 2.34813 0.856884 2.76253C0.889965 2.96143 1.01804 3.11785 1.17173 3.24019C1.32524 3.36234 1.51452 3.46074 1.73368 3.55193C2.17009 3.73986 2.72595 3.90266 3.30954 4.09363C4.41724 4.45647 5.60794 4.92617 6.22231 5.70063L6.2114 5.667C6.15709 5.46532 6.19411 5.26251 6.28878 5.07319C6.00581 4.80448 5.67217 4.58196 5.31593 4.38906C5.4413 4.08819 5.57949 3.81537 5.73984 3.56881C6.19851 3.7681 6.65141 3.99158 7.1004 4.23738C7.24465 4.13977 7.40194 4.04412 7.57037 3.95229C7.06208 3.66502 6.54983 3.40753 6.03176 3.17795C6.31016 2.84848 6.6421 2.58092 7.03505 2.37534C7.70909 2.67324 8.36612 3.00268 8.9837 3.37094C9.08831 3.33823 9.1985 3.30743 9.3068 3.27848C9.40951 3.25134 9.51221 3.2242 9.613 3.20264C8.98265 2.79887 8.31838 2.44329 7.63148 2.12106C7.98645 2.00462 8.38772 1.92395 8.83842 1.88336C9.42354 2.2577 9.97372 2.66643 10.4114 3.05283C10.6326 3.02365 10.8452 3.00298 11.0497 2.99398C10.671 2.61606 10.1844 2.2261 9.64776 1.85215C9.92744 1.85418 10.224 1.8692 10.5375 1.89704C10.9934 2.19153 11.4247 2.53614 11.819 2.93561C11.8467 2.96378 11.8744 2.99195 11.8984 3.02009C12.1974 3.05861 12.4612 3.12798 12.6765 3.23403C12.6988 3.24539 12.7205 3.2573 12.7418 3.26958C12.5572 3.03352 12.36 2.80984 12.1566 2.60325L12.1574 2.60251ZM13.1334 3.97128C13.0465 3.87928 12.9361 3.80312 12.8139 3.74215C12.6166 3.64425 12.3816 3.57978 12.1168 3.54096C12.0046 3.51455 11.8816 3.49512 11.7453 3.48137C11.1376 3.42139 10.3068 3.49958 9.43175 3.736C8.55409 3.97127 7.79852 4.31932 7.30002 4.67686C7.18945 4.75611 7.09191 4.83733 7.00745 4.91306C6.79929 5.08097 6.62832 5.25664 6.50763 5.43829C6.40577 5.59401 6.33548 5.76302 6.32479 5.93623L0 7.63576L0.123093 8.0914L6.44788 6.39187C6.5455 6.53613 6.68995 6.64908 6.85514 6.73052C7.09642 6.85169 7.39586 6.92301 7.74031 6.95742C8.42925 7.02252 9.302 6.93627 10.2245 6.68644C11.147 6.44034 11.9474 6.07774 12.5103 5.67525C12.7894 5.47454 13.0132 5.26165 13.1631 5.03644C13.3112 4.80935 13.3893 4.55133 13.3219 4.29961C13.2881 4.17394 13.2223 4.06496 13.1334 3.97128ZM12.7872 4.2935C12.8279 4.33482 12.853 4.3803 12.8631 4.42212C12.8872 4.50933 12.8679 4.6208 12.7672 4.7754C12.6638 4.92887 12.4805 5.10929 12.2311 5.28824C11.7365 5.64563 10.9772 5.99365 10.1014 6.2308C9.22562 6.46423 8.39577 6.54522 7.78506 6.48447C7.48157 6.45411 7.2324 6.38878 7.0672 6.30735C6.90016 6.22403 6.83003 6.13776 6.8065 6.04999C6.78295 5.96595 6.80062 5.85243 6.90248 5.69671C7.00431 5.54472 7.18835 5.36357 7.4376 5.1848C7.93422 4.8291 8.69167 4.47921 9.56746 4.24578C10.4433 4.00863 11.2742 3.93025 11.8821 3.99004C12.1888 4.02099 12.4367 4.08389 12.6028 4.1644C12.6863 4.20792 12.7451 4.24994 12.7872 4.2935ZM9.60679 1.37852C9.38245 1.37749 9.16606 1.38341 8.95911 1.39854C8.57992 1.16167 8.19223 0.940579 7.81307 0.748064C8.42012 0.893753 9.02482 1.10092 9.60679 1.37852ZM8.19083 1.49288C7.76441 1.57241 7.37588 1.69231 7.02616 1.85165C6.38178 1.57262 5.7241 1.32516 5.06628 1.09634C5.41429 0.916485 5.81806 0.755711 6.28688 0.61595C6.84075 0.795504 7.51837 1.11207 8.19083 1.49288ZM5.26311 0.477389C4.96956 0.603634 4.70385 0.743142 4.46414 0.894038C4.21881 0.813829 3.97533 0.735498 3.73499 0.660359C4.20222 0.556549 4.71886 0.495431 5.26311 0.477389ZM6.4965 2.14373C6.1425 2.37384 5.84024 2.65654 5.5786 2.98802C4.93595 2.72577 4.28925 2.50448 3.6311 2.31665C3.73856 2.15911 3.8609 2.00542 4.00366 1.86121C4.15769 1.70591 4.33217 1.55636 4.53265 1.41819C5.19057 1.63584 5.85015 1.87773 6.4965 2.14373ZM3.98439 1.23682C3.86998 1.33095 3.76299 1.42886 3.6653 1.5287C3.46241 1.73579 3.29482 1.95621 3.15323 2.18801C2.61767 2.04959 2.07485 1.93386 1.53059 1.83544C1.6974 1.59545 1.96644 1.36541 2.31963 1.16827C2.49388 1.07108 2.688 0.982803 2.899 0.904165C3.25835 1.01006 3.62008 1.12213 3.98439 1.23682ZM5.29967 3.38457C5.14493 3.62931 5.01053 3.89471 4.89273 4.18073C4.41926 3.96641 3.92309 3.79663 3.4566 3.642C3.35253 3.60763 3.2503 3.57514 3.14992 3.54453C3.20061 3.2617 3.27912 2.99586 3.39478 2.74522C4.03811 2.92175 4.67184 3.13362 5.29967 3.38457ZM2.93363 2.6223C2.8273 2.87115 2.74885 3.12954 2.69643 3.39559C2.40277 3.30009 2.13702 3.2104 1.91974 3.11737C1.72289 3.03382 1.56462 2.94815 1.46518 2.86966C1.36574 2.79116 1.33267 2.73127 1.32671 2.6839C1.30305 2.5434 1.30522 2.41037 1.3312 2.28274C1.87028 2.37591 2.40365 2.48579 2.93363 2.6223Z" fill="black"/>
<path d="M10.7423 7.15144C10.837 7.15144 10.9305 7.15316 11.0227 7.1566C11.4294 7.17177 11.8122 7.22039 12.171 7.30246C12.5979 7.4001 12.9908 7.54507 13.3498 7.73738C14.0638 8.1135 14.6186 8.65816 15.0142 9.37137C15.0226 9.38652 15.031 9.40176 15.0392 9.41707C15.4364 10.1527 15.6349 11.0512 15.6349 12.1124V13.5577H8.59391C8.62646 14.3975 8.87711 15.0583 9.34586 15.5401C9.82112 16.0154 10.4787 16.253 11.3185 16.253C12.0151 16.253 12.6532 16.1814 13.2326 16.0382C13.812 15.8949 14.4077 15.6801 15.0197 15.3936V17.6983C14.4793 17.9652 13.9129 18.1606 13.3205 18.2843C12.7345 18.408 12.0216 18.4698 11.1818 18.4698C10.088 18.4698 9.11799 18.268 8.27164 17.8643C7.90423 17.6877 7.57108 17.4707 7.2722 17.2131C6.99828 16.977 6.75314 16.707 6.53679 16.4029C6.44959 16.2803 6.36707 16.1522 6.28922 16.0186C5.86284 15.2768 5.62772 14.3621 5.58387 13.2745C5.57884 13.1498 5.57633 13.0229 5.57633 12.8936C5.57633 12.6813 5.58228 12.4749 5.59417 12.2745C5.65377 11.2704 5.86267 10.4156 6.22086 9.71004C6.65706 8.85717 7.26253 8.21915 8.03727 7.79597C8.37566 7.60829 8.73827 7.4616 9.1251 7.3559C9.48338 7.258 9.86242 7.19526 10.2622 7.16767C10.4191 7.15685 10.5791 7.15144 10.7423 7.15144ZM10.7619 9.27058C10.1824 9.27058 9.70068 9.45613 9.31656 9.82722C8.93896 10.1983 8.72086 10.781 8.66227 11.5753H12.842C12.8354 11.1326 12.7541 10.7387 12.5978 10.3936C12.4481 10.0486 12.2202 9.77514 11.9142 9.57332C11.6147 9.37149 11.2306 9.27058 10.7619 9.27058Z" fill="black"/>
<path d="M11.0227 7.1566C11.4294 7.17177 11.8122 7.22039 12.171 7.30246C12.2784 7.07516 12.3342 6.82655 12.3339 6.57449V5.77449C12.3339 5.64188 12.2812 5.5147 12.1875 5.42094C12.0937 5.32717 11.9665 5.27449 11.8339 5.27449C11.7013 5.27449 11.5741 5.32717 11.4804 5.42094C11.3866 5.5147 11.3339 5.64188 11.3339 5.77449V6.57449C11.3339 6.76014 11.2602 6.93819 11.1289 7.06947C11.0962 7.10216 11.0606 7.13129 11.0227 7.1566Z" fill="black"/>
<path d="M9.1251 7.3559C9.48338 7.258 9.86242 7.19526 10.2622 7.16767C10.2179 7.1399 10.1765 7.10704 10.1389 7.06947C10.0077 6.93819 9.93391 6.76014 9.93391 6.57449L9.93491 5.77449C9.93491 5.64188 9.88223 5.5147 9.78846 5.42094C9.6947 5.32717 9.56752 5.27449 9.43491 5.27449C9.3023 5.27449 9.17512 5.32717 9.08136 5.42094C8.98759 5.5147 8.93491 5.64188 8.93491 5.77449V6.57449C8.93491 6.85602 9.00324 7.12142 9.1251 7.3559Z" fill="black"/>
<path d="M15.0142 9.37137C15.0226 9.38652 15.031 9.40176 15.0392 9.41707C15.2576 9.82158 15.4159 10.2753 15.5142 10.7782C15.8244 10.402 16.0143 9.88086 16.0142 9.39324V7.99324C16.0142 7.86063 15.9615 7.73345 15.8678 7.63969C15.774 7.54592 15.6468 7.49324 15.5142 7.49324C15.3816 7.49324 15.2544 7.54592 15.1607 7.63969C15.0669 7.73345 15.0142 7.86063 15.0142 7.99324V9.37137Z" fill="black"/>
<path d="M6.40555 9.36764C6.39714 9.3828 6.38881 9.39803 6.38054 9.41334C6.16218 9.81785 6.00385 10.2716 5.90555 10.7745C5.59536 10.3983 5.40545 9.87713 5.40555 9.38951V7.98951C5.40555 7.8569 5.45823 7.72973 5.552 7.63596C5.64577 7.54219 5.77294 7.48951 5.90555 7.48951C6.03816 7.48951 6.16534 7.54219 6.25911 7.63596C6.35287 7.72973 6.40555 7.8569 6.40555 7.98951V9.36764Z" fill="black"/>
<path d="M15.6349 13.5577C15.6349 13.2041 15.6246 12.7041 15.6246 12.5577H17.0839C17.2165 12.5577 17.3437 12.6104 17.4374 12.7041C17.5312 12.7979 17.5839 12.9251 17.5839 13.0577C17.5839 13.1903 17.5312 13.3175 17.4374 13.4112C17.3437 13.505 17.2165 13.5577 17.0839 13.5577H15.6349Z" fill="black"/>
<path d="M5.5999 13.5577C5.5999 13.2041 5.6102 12.7041 5.6102 12.5577H4.15095C4.01834 12.5577 3.89116 12.6104 3.79739 12.7041C3.70363 12.7979 3.65095 12.9251 3.65095 13.0577C3.65095 13.1903 3.70363 13.3175 3.79739 13.4112C3.89116 13.505 4.01834 13.5577 4.15095 13.5577H5.5999Z" fill="black"/>
<path d="M7.2722 17.2131C6.99828 16.977 6.75314 16.707 6.53679 16.4029C6.29305 16.5204 6.07375 16.6871 5.8938 16.8949C5.5788 17.2586 5.40545 17.7236 5.40555 18.2047V19.7047C5.40555 19.8373 5.45823 19.9645 5.552 20.0583C5.64577 20.1521 5.77294 20.2047 5.90555 20.2047C6.03816 20.2047 6.16534 20.1521 6.25911 20.0583C6.35287 19.9645 6.40555 19.8373 6.40555 19.7047V18.2047C6.4054 17.9453 6.50608 17.696 6.68633 17.5094C6.84336 17.3468 7.05009 17.243 7.2722 17.2131Z" fill="black"/>
<path d="M14.2746 17.2131C14.5485 16.977 14.7937 16.707 15.01 16.4029C15.2538 16.5204 15.4731 16.6871 15.653 16.8949C15.968 17.2586 16.1414 17.7236 16.1413 18.2047V19.7047C16.1413 19.8373 16.0886 19.9645 15.9948 20.0583C15.9011 20.1521 15.7739 20.2047 15.6413 20.2047C15.5087 20.2047 15.3815 20.1521 15.2877 20.0583C15.194 19.9645 15.1413 19.8373 15.1413 19.7047V18.2047C15.1414 17.9453 15.0407 17.696 14.8605 17.5094C14.7035 17.3468 14.4967 17.243 14.2746 17.2131Z" fill="black"/>
</svg>
