<?xml version="1.0" standalone="no"?>
<!DOCTYPE svg PUBLIC "-//W3C//DTD SVG 20010904//EN"
 "http://www.w3.org/TR/2001/REC-SVG-20010904/DTD/svg10.dtd">
<svg version="1.0" xmlns="http://www.w3.org/2000/svg"
 width="672.000000pt" height="672.000000pt" viewBox="0 0 672.000000 672.000000"
 preserveAspectRatio="xMidYMid meet">
<metadata>
Created by potrace 1.14, written by Peter Selinger 2001-2017
</metadata>
<g transform="translate(0.000000,672.000000) scale(0.100000,-0.100000)"
fill="#000000" stroke="none">
<path d="M2039 6716 c-2 -2 -35 -6 -74 -10 -162 -15 -207 -22 -355 -57 -128
-29 -310 -91 -380 -128 -8 -4 -40 -21 -70 -37 -288 -151 -444 -398 -406 -639
19 -115 104 -189 321 -278 71 -29 187 -69 385 -132 80 -25 152 -49 160 -52 8
-3 20 -7 25 -9 24 -6 182 -67 272 -104 204 -87 366 -187 482 -297 36 -35 66
-63 67 -63 1 0 -1 20 -3 44 -4 28 1 63 11 93 l17 48 -48 43 c-49 43 -142 109
-221 154 l-43 25 63 124 c40 79 69 125 81 127 9 2 110 -42 224 -99 l206 -102
31 18 c110 65 121 74 101 81 -11 4 -22 10 -25 13 -3 3 -27 17 -55 31 -27 13
-72 38 -100 53 -27 16 -51 29 -52 29 -9 -3 -233 110 -233 117 0 25 187 181
277 232 39 22 31 25 278 -97 165 -81 211 -105 325 -171 l55 -32 70 20 c39 11
81 22 95 25 13 3 26 7 28 9 7 7 -241 153 -374 220 -34 17 -69 36 -77 44 -9 7
-22 14 -29 15 -22 4 -138 61 -138 67 0 6 41 17 75 20 6 1 17 5 25 9 8 4 31 11
50 14 19 3 46 8 60 11 14 3 50 8 80 11 30 3 64 7 74 8 16 2 235 -138 256 -163
3 -3 23 -19 46 -34 22 -15 49 -35 60 -45 76 -68 159 -127 178 -125 11 1 54 4
94 7 41 2 76 6 78 9 9 9 -202 194 -310 272 -15 11 -44 32 -63 48 -20 15 -40
27 -44 27 -5 0 -9 4 -9 9 0 6 33 8 78 5 42 -2 102 -5 132 -7 56 -3 81 -13 134
-51 87 -61 218 -170 294 -243 68 -65 77 -70 138 -82 36 -6 95 -23 131 -36 71
-27 71 -28 8 44 -163 187 -315 325 -482 438 -46 31 -83 60 -83 65 0 4 -5 8
-10 8 -6 0 -56 26 -113 58 -125 71 -358 182 -382 182 -4 0 -21 7 -38 14 -62
29 -266 91 -402 123 -72 16 -288 54 -335 58 -30 3 -68 8 -85 10 -32 6 -521 16
-526 11z m111 -152 c0 -1 -28 -16 -63 -32 -34 -16 -89 -45 -121 -64 l-58 -35
-87 29 c-84 29 -108 36 -124 37 -5 1 -6 5 -3 10 3 5 41 14 83 20 43 6 89 13
103 16 14 2 58 6 99 9 41 3 75 7 77 8 3 4 94 5 94 2z m560 -125 c70 -29 362
-177 373 -188 5 -5 -15 -14 -45 -21 -88 -20 -192 -53 -259 -81 -47 -21 -49
-21 -96 -3 -26 9 -52 20 -58 24 -14 9 -173 71 -185 72 -3 0 -22 9 -42 19 -21
10 -43 19 -50 19 -7 0 -24 6 -38 13 -14 7 -45 19 -70 27 -25 7 -49 17 -55 21
-5 4 -25 10 -43 14 -18 4 -29 11 -26 17 6 9 123 66 149 72 6 2 21 8 35 13 14
6 57 21 95 34 39 12 74 26 78 30 8 6 124 -33 237 -82z m420 0 c58 -18 110 -33
115 -35 21 -4 202 -76 250 -99 56 -27 65 -24 -80 -29 -66 -2 -74 0 -131 36
-34 21 -66 38 -73 38 -6 0 -11 3 -11 8 0 4 -10 12 -23 18 -95 47 -206 113
-167 100 8 -3 62 -19 120 -37z m-1650 -29 c25 -8 48 -14 53 -16 4 -1 9 -3 12
-4 3 -1 8 -3 13 -5 4 -1 14 -4 22 -7 8 -4 50 -16 93 -29 42 -12 77 -26 77 -31
0 -4 -3 -8 -8 -8 -8 0 -130 -120 -162 -160 -30 -38 -33 -42 -64 -88 -21 -31
-34 -41 -47 -37 -17 6 -38 11 -88 21 -12 3 -53 12 -90 21 -36 8 -75 17 -86 19
-26 4 -217 44 -230 48 -8 2 100 115 136 141 86 63 271 154 304 150 11 -1 40
-8 65 -15z m830 -279 c74 -29 161 -62 192 -73 l56 -21 -65 -50 c-36 -27 -104
-89 -152 -138 -52 -54 -91 -86 -96 -80 -6 4 -55 25 -110 46 -55 20 -109 41
-120 45 -42 18 -334 110 -349 110 -9 0 -16 5 -16 11 0 32 162 201 253 265 l30
20 121 -42 c67 -23 182 -65 256 -93z m-1345 -151 c22 -5 52 -11 68 -14 15 -2
35 -7 45 -10 9 -3 35 -7 57 -11 57 -8 176 -35 203 -46 13 -5 33 -9 46 -9 12 0
25 -2 28 -5 3 -3 -8 -42 -24 -88 -17 -45 -31 -91 -32 -102 -9 -67 -5 -66 -134
-20 -127 45 -229 91 -250 112 -7 7 -17 13 -22 13 -5 0 -18 16 -30 35 -16 26
-21 48 -19 87 3 76 0 73 64 58z m780 -193 c72 -22 135 -42 140 -43 12 -3 153
-52 180 -63 87 -36 105 -45 103 -50 -2 -3 -30 -60 -63 -126 l-61 -120 -115 46
c-126 51 -271 101 -280 97 -3 -2 -12 2 -20 8 -8 6 -42 19 -77 30 l-62 18 6 40
c5 39 34 132 57 188 14 32 9 33 192 -25z"/>
<path d="M4078 5615 c-2 -1 -46 -5 -98 -8 -52 -3 -106 -8 -120 -11 -14 -3 -47
-8 -73 -10 -26 -3 -51 -7 -55 -10 -4 -2 -28 -7 -55 -10 -26 -4 -58 -11 -72
-16 -14 -5 -25 -8 -25 -5 0 2 -15 -1 -32 -6 -18 -6 -42 -12 -53 -14 -151 -33
-575 -213 -631 -269 -8 -9 -19 -16 -23 -16 -5 0 -20 -10 -34 -22 -13 -13 -40
-34 -58 -48 -115 -87 -223 -224 -235 -299 -4 -22 -12 -44 -18 -49 -6 -5 -51
-19 -101 -31 -49 -13 -121 -32 -159 -43 -38 -11 -77 -22 -87 -24 -11 -2 -27
-6 -36 -8 -10 -2 -135 -36 -278 -75 -143 -39 -269 -73 -280 -76 -32 -7 -53
-12 -170 -45 -60 -16 -120 -32 -132 -34 -13 -3 -26 -7 -31 -10 -5 -3 -19 -7
-33 -10 -13 -3 -76 -19 -139 -36 -154 -42 -182 -50 -200 -54 -8 -2 -60 -16
-115 -31 -55 -15 -107 -29 -115 -30 -8 -2 -16 -4 -17 -5 -2 -2 -6 -3 -10 -4
-94 -21 -113 -29 -109 -45 3 -9 10 -36 16 -61 6 -25 13 -50 15 -57 3 -11 13
-10 95 11 28 8 175 48 265 73 50 13 100 26 112 28 12 2 26 5 30 8 5 3 78 23
163 46 85 22 182 48 215 57 33 9 67 18 75 19 8 2 15 4 15 5 0 1 7 3 15 5 8 1
35 8 60 16 25 7 50 13 55 15 31 6 222 56 235 61 8 3 20 7 25 8 6 2 46 13 90
24 44 12 87 23 95 25 8 3 67 18 130 35 63 17 168 46 232 63 l118 32 37 -39
c35 -35 153 -100 199 -109 10 -3 41 -9 68 -16 99 -22 242 -28 415 -16 58 3
102 4 98 0 -6 -6 14 -70 34 -106 10 -20 12 -20 -76 -48 -293 -95 -568 -296
-723 -530 -21 -30 -40 -57 -43 -60 -3 -3 -9 -12 -12 -20 -3 -8 -6 91 -6 221
-1 153 -5 248 -13 270 -11 33 -62 88 -83 90 -5 0 -19 3 -30 5 -40 10 -61 10
-85 -1 -34 -13 -80 -50 -80 -63 0 -6 -6 -12 -12 -14 -16 -6 -23 -570 -8 -633
5 -22 11 -51 14 -65 13 -62 85 -215 108 -231 6 -4 5 -22 -1 -45 -5 -21 -12
-50 -15 -64 -2 -14 -9 -45 -14 -70 -6 -25 -13 -67 -17 -95 -4 -27 -8 -61 -10
-75 -5 -32 -18 -197 -18 -231 l-1 -27 -225 0 c-124 -1 -228 -1 -231 -2 -3 -1
-19 -3 -36 -4 -68 -7 -127 -84 -123 -159 4 -59 24 -98 67 -127 l37 -25 257 0
c222 0 258 -2 259 -15 0 -8 2 -22 3 -30 2 -8 6 -42 10 -75 3 -33 8 -71 11 -85
5 -23 13 -70 21 -113 2 -10 13 -52 24 -95 12 -42 23 -84 25 -92 14 -62 106
-255 171 -356 l33 -52 -58 -35 c-98 -61 -177 -148 -231 -256 -63 -123 -69
-171 -69 -509 0 -326 0 -326 54 -376 75 -68 208 -42 250 49 5 11 12 157 15
325 l5 305 28 57 c34 70 107 137 173 161 65 23 74 22 111 -13 18 -17 36 -30
42 -30 5 0 11 -4 13 -9 4 -13 151 -101 230 -139 106 -51 262 -105 361 -127 10
-2 26 -6 35 -9 9 -3 33 -8 52 -11 19 -3 42 -8 50 -10 76 -20 229 -30 475 -30
223 0 298 4 432 20 240 30 458 90 672 186 60 27 74 30 82 18 26 -41 33 -107
34 -364 1 -148 5 -287 9 -307 14 -66 104 -124 173 -112 60 11 103 47 126 104
22 55 16 602 -7 689 -29 108 -81 203 -156 285 -38 42 -151 126 -169 126 -13 0
-12 -10 -14 178 -1 171 4 162 -77 122 -115 -57 -475 -175 -591 -194 -19 -3
-52 -8 -74 -11 -22 -4 -53 -9 -70 -12 -56 -10 -176 -18 -370 -25 -34 -2 -194
14 -233 22 -121 27 -241 78 -321 138 -184 138 -307 394 -315 656 l-1 48 1380
2 1380 1 36 23 c92 57 98 199 11 261 -44 31 -67 33 -320 35 l-237 1 -1 115
c-2 165 -15 325 -34 413 -7 32 -5 42 15 65 54 65 113 204 131 314 13 76 11
568 -3 606 -15 44 -64 87 -113 100 -78 19 -169 -36 -188 -115 -5 -21 -9 -134
-8 -250 1 -117 -2 -213 -6 -213 -4 0 -15 15 -24 33 -30 58 -124 175 -206 257
-44 44 -84 80 -89 80 -4 0 -14 6 -21 13 -80 75 -293 183 -463 233 -115 35
-108 30 -91 56 28 42 39 122 41 287 l2 164 64 47 c154 114 243 232 256 341 6
48 -11 131 -31 158 -71 90 -195 154 -343 176 -15 2 -39 7 -53 10 -14 3 -65 8
-115 11 -49 3 -98 7 -107 8 -9 2 -18 3 -20 1z m277 -180 c61 -10 152 -43 191
-68 49 -32 63 -83 38 -139 -20 -44 -110 -142 -178 -192 -35 -26 -42 -28 -71
-18 -41 15 -97 15 -132 0 -42 -19 -82 -68 -89 -110 -4 -21 -12 -42 -18 -46
-23 -18 -335 -128 -350 -124 -4 2 -14 -3 -22 -9 -8 -6 -14 -9 -14 -5 0 3 -11
1 -25 -4 l-25 -10 0 90 c0 50 0 92 0 95 0 3 -7 21 -15 42 -46 110 -206 127
-273 29 -30 -44 -33 -62 -32 -193 0 -61 -4 -114 -9 -117 -4 -3 -48 -8 -97 -11
-49 -3 -95 -8 -101 -10 -7 -3 -13 -1 -13 3 0 4 -35 7 -78 7 -206 1 -372 64
-384 145 -8 57 38 134 125 207 72 62 98 80 158 118 46 28 243 125 304 149 77
31 276 95 315 102 14 3 32 7 40 10 24 9 152 35 195 40 22 3 47 7 55 9 8 3 44
7 80 11 36 3 66 7 68 9 6 6 316 -3 357 -10z m-250 -797 c-4 -80 -9 -102 -35
-143 -35 -57 -55 -64 -191 -66 l-123 -1 -37 41 c-43 47 -57 80 -39 91 6 4 36
13 65 19 39 9 347 111 362 120 1 1 0 -27 -2 -61z m-85 -892 c151 -13 282 -76
380 -183 113 -122 180 -305 184 -498 l1 -50 -655 0 c-360 -1 -660 1 -666 3 -6
2 -10 15 -9 30 6 67 18 137 36 204 11 40 21 78 22 83 8 30 61 135 68 135 5 0
9 6 9 13 0 22 111 132 170 169 91 57 171 85 270 94 36 4 66 7 68 9 1 1 17 1
35 -1 17 -1 57 -5 87 -8z"/>
</g>
</svg>
